<svg width="80" height="80" viewBox="0 0 80 80" fill="none" xmlns="http://www.w3.org/2000/svg">
<g clip-path="url(#clip0_301_1552)">
<path d="M31.1667 14.6666H33.8334C33.8334 14.15 33.9977 13.9521 34.3577 13.5201C34.8397 12.9415 35.5001 12.15 35.5001 10.6666C35.5001 9.18329 34.8397 8.39163 34.3577 7.81296C33.9977 7.38079 33.8334 7.18329 33.8334 6.66663C33.8334 6.14996 33.9976 5.95229 34.3577 5.52046C34.8397 4.94163 35.5001 4.14996 35.5001 2.66663H32.8334C32.8334 3.18329 32.6692 3.38096 32.3091 3.81279C31.8271 4.39129 31.1667 5.18329 31.1667 6.66663C31.1667 8.14996 31.8271 8.94163 32.3091 9.52029C32.6691 9.95196 32.8334 10.15 32.8334 10.6666C32.8334 11.1833 32.6691 11.3811 32.3091 11.8131C31.8271 12.3916 31.1667 13.1833 31.1667 14.6666Z" fill="#3766CC"/>
<path d="M58.6667 14.6666H61.3334C61.3334 14.15 61.4977 13.9521 61.8577 13.5201C62.3397 12.9415 63.0001 12.15 63.0001 10.6666C63.0001 9.18329 62.3397 8.39163 61.8577 7.81296C61.4977 7.38079 61.3334 7.18329 61.3334 6.66663C61.3334 6.14996 61.4976 5.95229 61.8577 5.52046C62.3397 4.94163 63.0001 4.14996 63.0001 2.66663H60.3334C60.3334 3.18329 60.1692 3.38096 59.8091 3.81279C59.3271 4.39129 58.6667 5.18329 58.6667 6.66663C58.6667 8.14996 59.3271 8.94163 59.8091 9.52029C60.1691 9.95196 60.3334 10.15 60.3334 10.6666C60.3334 11.1833 60.1691 11.3811 59.8091 11.8131C59.3271 12.3916 58.6667 13.1833 58.6667 14.6666Z" fill="#3766CC"/>
<path d="M17.3333 12H19.9999C19.9999 11.4833 20.1643 11.2855 20.5243 10.8535C21.0063 10.2748 21.6666 9.48333 21.6666 8C21.6666 6.51667 21.0063 5.725 20.5243 5.14633C20.1643 4.71417 19.9999 4.51667 19.9999 4C19.9999 3.48333 20.1641 3.28567 20.5243 2.85383C21.0063 2.275 21.6666 1.48333 21.6666 0H18.9999C18.9999 0.516667 18.8358 0.714333 18.4756 1.14617C17.9936 1.72467 17.3333 2.51667 17.3333 4C17.3333 5.48333 17.9936 6.275 18.4756 6.85367C18.8356 7.28533 18.9999 7.48333 18.9999 8C18.9999 8.51667 18.8356 8.7145 18.4756 9.1465C17.9936 9.725 17.3333 10.5167 17.3333 12Z" fill="#3766CC"/>
<path d="M44.8333 12H47.4999C47.4999 11.4833 47.6643 11.2855 48.0243 10.8535C48.5063 10.2748 49.1666 9.48333 49.1666 8C49.1666 6.51667 48.5063 5.725 48.0243 5.14633C47.6643 4.71417 47.4999 4.51667 47.4999 4C47.4999 3.48333 47.6641 3.28567 48.0243 2.85383C48.5063 2.275 49.1666 1.48333 49.1666 0H46.4999C46.4999 0.516667 46.3358 0.714333 45.9756 1.14617C45.4936 1.72467 44.8333 2.51667 44.8333 4C44.8333 5.48333 45.4936 6.275 45.9756 6.85367C46.3356 7.28533 46.4999 7.48333 46.4999 8C46.4999 8.51667 46.3356 8.7145 45.9756 9.1465C45.4936 9.725 44.8333 10.5167 44.8333 12Z" fill="#3766CC"/>
<path d="M77.0001 17.3333H76.0001V14.6666H73.3334V17.3333H70.6667V14.6666H68.0001V17.3333H10.6667V20H77.0001C77.0885 20 77.1733 20.0351 77.2358 20.0976C77.2983 20.1601 77.3334 20.2449 77.3334 20.3333V71.6666C77.3334 71.755 77.2983 71.8398 77.2358 71.9023C77.1733 71.9648 77.0885 72 77.0001 72H21.3334V74.6666H66.9591L68.0399 78.99C68.112 79.2784 68.2785 79.5345 68.5129 79.7175C68.7472 79.9005 69.0361 80 69.3334 80H74.6667C74.9641 80 75.2529 79.9005 75.4873 79.7175C75.7217 79.5345 75.8881 79.2784 75.9602 78.99L77.0411 74.6666C77.8293 74.6549 78.5814 74.3338 79.1349 73.7726C79.6885 73.2113 79.9993 72.4549 80.0001 71.6666V20.3333C79.9992 19.5379 79.6828 18.7754 79.1204 18.213C78.558 17.6506 77.7954 17.3342 77.0001 17.3333V17.3333ZM73.6257 77.3333H70.3744L69.7078 74.6666H74.2924L73.6257 77.3333Z" fill="#3766CC"/>
<path d="M2.66667 71.6667V20.3334C2.66667 20.245 2.70179 20.1602 2.7643 20.0977C2.82681 20.0352 2.91159 20 3 20H8V17.3334H3C2.20463 17.3343 1.44211 17.6507 0.879703 18.2131C0.317294 18.7755 0.000926306 19.538 0 20.3334V71.6667C0.000832114 72.455 0.311562 73.2114 0.865141 73.7727C1.41872 74.3339 2.17077 74.655 2.959 74.6667L4.03983 78.9904C4.11201 79.2788 4.2785 79.5348 4.51287 79.7178C4.74724 79.9007 5.03602 80.0001 5.33333 80H10.6667C10.964 80 11.2528 79.9006 11.4872 79.7176C11.7216 79.5346 11.8881 79.2785 11.9602 78.99L13.041 74.6667H18.6667V72H3C2.91159 72 2.82681 71.9649 2.7643 71.9024C2.70179 71.8399 2.66667 71.7551 2.66667 71.6667ZM10.2923 74.6667L9.62567 77.3334H6.37433L5.70767 74.6667H10.2923Z" fill="#3766CC"/>
<path d="M48 66.6666H32V69.3333H48V66.6666Z" fill="#3766CC"/>
<path d="M74.6666 24C74.6666 23.6463 74.5261 23.3072 74.2761 23.0571C74.026 22.8071 73.6869 22.6666 73.3333 22.6666H6.66659C6.31296 22.6666 5.97383 22.8071 5.72378 23.0571C5.47373 23.3072 5.33325 23.6463 5.33325 24V62.6666C5.33325 63.0202 5.47373 63.3594 5.72378 63.6094C5.97383 63.8595 6.31296 64 6.66659 64H63.9999V61.3333H7.99992V30.6666H10.6666C11.0201 30.667 11.359 30.8076 11.609 31.0576C11.8589 31.3076 11.9995 31.6465 11.9999 32V54.6666C11.9999 55.7275 12.4213 56.7449 13.1715 57.495C13.9216 58.2452 14.9391 58.6666 15.9999 58.6666C17.0608 58.6666 18.0782 58.2452 18.8283 57.495C19.5785 56.7449 19.9999 55.7275 19.9999 54.6666V32C19.9999 31.6463 20.1404 31.3072 20.3904 31.0571C20.6405 30.8071 20.9796 30.6666 21.3333 30.6666C21.6869 30.6666 22.026 30.8071 22.2761 31.0571C22.5261 31.3072 22.6666 31.6463 22.6666 32V54.6666C22.6666 55.7275 23.088 56.7449 23.8382 57.495C24.5883 58.2452 25.6057 58.6666 26.6666 58.6666C27.7275 58.6666 28.7449 58.2452 29.495 57.495C30.2452 56.7449 30.6666 55.7275 30.6666 54.6666V32C30.6666 31.6463 30.8071 31.3072 31.0571 31.0571C31.3072 30.8071 31.6463 30.6666 31.9999 30.6666C32.3535 30.6666 32.6927 30.8071 32.9427 31.0571C33.1928 31.3072 33.3333 31.6463 33.3333 32V54.6666C33.3333 55.7275 33.7547 56.7449 34.5048 57.495C35.255 58.2452 36.2724 58.6666 37.3333 58.6666C38.3941 58.6666 39.4115 58.2452 40.1617 57.495C40.9118 56.7449 41.3333 55.7275 41.3333 54.6666V32C41.3333 31.6463 41.4737 31.3072 41.7238 31.0571C41.9738 30.8071 42.313 30.6666 42.6666 30.6666C43.0202 30.6666 43.3593 30.8071 43.6094 31.0571C43.8594 31.3072 43.9999 31.6463 43.9999 32V54.6666C43.9999 55.7275 44.4213 56.7449 45.1715 57.495C45.9216 58.2452 46.9391 58.6666 47.9999 58.6666C49.0608 58.6666 50.0782 58.2452 50.8283 57.495C51.5785 56.7449 51.9999 55.7275 51.9999 54.6666V32C51.9999 31.6463 52.1404 31.3072 52.3904 31.0571C52.6405 30.8071 52.9796 30.6666 53.3333 30.6666C53.6869 30.6666 54.026 30.8071 54.2761 31.0571C54.5261 31.3072 54.6666 31.6463 54.6666 32V54.6666C54.6666 55.7275 55.088 56.7449 55.8382 57.495C56.5883 58.2452 57.6057 58.6666 58.6666 58.6666C59.7275 58.6666 60.7449 58.2452 61.495 57.495C62.2452 56.7449 62.6666 55.7275 62.6666 54.6666V32C62.6666 31.6463 62.8071 31.3072 63.0571 31.0571C63.3072 30.8071 63.6463 30.6666 63.9999 30.6666C64.3535 30.6666 64.6927 30.8071 64.9427 31.0571C65.1928 31.3072 65.3333 31.6463 65.3333 32V54C65.3347 55.2372 65.8268 56.4234 66.7016 57.2982C67.5765 58.1731 68.7627 58.6652 69.9999 58.6666H71.9999V61.3333H66.6666V64H73.3333C73.6869 64 74.026 63.8595 74.2761 63.6094C74.5261 63.3594 74.6666 63.0202 74.6666 62.6666V24ZM71.9999 56H69.9999C69.4697 55.9994 68.9613 55.7885 68.5863 55.4135C68.2114 55.0386 68.0005 54.5302 67.9999 54V32C67.9999 30.9391 67.5785 29.9217 66.8283 29.1715C66.0782 28.4214 65.0608 28 63.9999 28C62.9391 28 61.9216 28.4214 61.1715 29.1715C60.4213 29.9217 59.9999 30.9391 59.9999 32V54.6666C59.9999 55.0202 59.8594 55.3594 59.6094 55.6094C59.3593 55.8595 59.0202 56 58.6666 56C58.313 56 57.9738 55.8595 57.7238 55.6094C57.4737 55.3594 57.3333 55.0202 57.3333 54.6666V32C57.3333 30.9391 56.9118 29.9217 56.1617 29.1715C55.4115 28.4214 54.3941 28 53.3333 28C52.2724 28 51.255 28.4214 50.5048 29.1715C49.7547 29.9217 49.3333 30.9391 49.3333 32V54.6666C49.3333 55.0202 49.1928 55.3594 48.9427 55.6094C48.6927 55.8595 48.3535 56 47.9999 56C47.6463 56 47.3072 55.8595 47.0571 55.6094C46.8071 55.3594 46.6666 55.0202 46.6666 54.6666V32C46.6666 30.9391 46.2452 29.9217 45.495 29.1715C44.7449 28.4214 43.7275 28 42.6666 28C41.6057 28 40.5883 28.4214 39.8382 29.1715C39.088 29.9217 38.6666 30.9391 38.6666 32V54.6666C38.6666 55.0202 38.5261 55.3594 38.2761 55.6094C38.026 55.8595 37.6869 56 37.3333 56C36.9796 56 36.6405 55.8595 36.3904 55.6094C36.1404 55.3594 35.9999 55.0202 35.9999 54.6666V32C35.9999 30.9391 35.5785 29.9217 34.8283 29.1715C34.0782 28.4214 33.0608 28 31.9999 28C30.9391 28 29.9216 28.4214 29.1715 29.1715C28.4213 29.9217 27.9999 30.9391 27.9999 32V54.6666C27.9999 55.0202 27.8594 55.3594 27.6094 55.6094C27.3593 55.8595 27.0202 56 26.6666 56C26.313 56 25.9738 55.8595 25.7238 55.6094C25.4737 55.3594 25.3333 55.0202 25.3333 54.6666V32C25.3333 30.9391 24.9118 29.9217 24.1617 29.1715C23.4115 28.4214 22.3941 28 21.3333 28C20.2724 28 19.255 28.4214 18.5048 29.1715C17.7547 29.9217 17.3333 30.9391 17.3333 32V54.6666C17.3333 55.0202 17.1928 55.3594 16.9427 55.6094C16.6927 55.8595 16.3535 56 15.9999 56C15.6463 56 15.3072 55.8595 15.0571 55.6094C14.8071 55.3594 14.6666 55.0202 14.6666 54.6666V32C14.6654 30.9395 14.2436 29.9227 13.4937 29.1728C12.7438 28.423 11.7271 28.0012 10.6666 28H7.99992V25.3333H71.9999V56Z" fill="#3766CC"/>
<path d="M74.6667 66.6666H72V69.3333H74.6667V66.6666Z" fill="#3766CC"/>
<path d="M69.3334 66.6666H66.6667V69.3333H69.3334V66.6666Z" fill="#3766CC"/>
<path d="M7.99992 66.6666H5.33325V69.3333H7.99992V66.6666Z" fill="#3766CC"/>
<path d="M13.3334 66.6666H10.6667V69.3333H13.3334V66.6666Z" fill="#3766CC"/>
</g>
<defs>
<clipPath id="clip0_301_1552">
<rect width="80" height="80" fill="white"/>
</clipPath>
</defs>
</svg>
