<svg width="80" height="80" viewBox="0 0 80 80" fill="none" xmlns="http://www.w3.org/2000/svg">
<g clip-path="url(#clip0_301_1544)">
<path d="M6.77773 33.3347H8.06798V48.001C8.06981 49.4731 9.2624 50.6657 10.7345 50.6675H12.6217L4.65804 76.5487C4.40902 77.358 4.55917 78.2369 5.06208 78.9174C5.565 79.598 6.36087 80.0002 7.2074 80.0002H72.9269C73.7729 80.0002 74.5693 79.5986 75.0723 78.9181C75.5746 78.2375 75.7247 77.3586 75.4763 76.5493L67.5127 50.6675H69.3992C70.8713 50.6657 72.0645 49.4731 72.0658 48.001V33.3347H73.3566C74.407 33.3371 75.3622 32.7249 75.7992 31.7692C76.2691 30.7804 76.1159 29.608 75.4086 28.773L68.7877 20.9681C67.9289 20.0123 66.5239 19.7761 65.3997 20.398V19.5619C65.404 18.2631 64.7887 17.04 63.7432 16.2697L42.4225 0.785552C41.0309 -0.25873 39.1181 -0.261781 37.7235 0.777007L16.3752 16.2819C15.3377 17.0522 14.7285 18.2698 14.7347 19.5619V20.3992C13.6116 19.7767 12.2085 20.0111 11.3491 20.9644L4.71785 28.7822C4.01597 29.6165 3.86644 30.7841 4.33517 31.7685C4.77156 32.7243 5.72673 33.3365 6.77773 33.3347V33.3347ZM15.4121 50.6675H16.0676C17.5397 50.6657 18.7323 49.4731 18.7342 48.001V45.3344H21.0022C21.0016 46.7486 21.5631 48.1053 22.5634 49.1057C23.5631 50.1054 24.9199 50.6675 26.334 50.6675H56.1354C57.2401 50.6675 58.1355 51.5629 58.1355 52.6676C58.1355 53.7723 57.2401 54.6677 56.1354 54.6677H23.0413C20.0958 54.6677 17.7082 57.0553 17.7082 60.0008C17.7082 62.9462 20.0958 65.3338 23.0413 65.3338H58.3711C60.2119 65.3338 61.7041 66.8261 61.7041 68.6669C61.7041 70.5076 60.2119 72.0005 58.3711 72.0005H19.1339C16.6365 71.9902 14.4692 73.7235 13.9315 76.163L13.6678 77.3336H7.2074L15.4121 50.6675ZM72.9269 77.3336H16.4009L16.5327 76.7483C16.8019 75.5283 17.8852 74.6616 19.1339 74.6671H58.3711C61.6846 74.6671 64.3707 71.9804 64.3707 68.6669C64.3707 65.3534 61.6846 62.6673 58.3711 62.6673H23.0413C21.5686 62.6673 20.3747 61.4735 20.3747 60.0008C20.3747 58.528 21.5686 57.3342 23.0413 57.3342H56.1354C58.7129 57.3342 60.802 55.245 60.802 52.6676C60.802 50.0902 58.7129 48.001 56.1354 48.001H26.334C24.8613 48.001 23.6675 46.8072 23.6675 45.3344H61.3996V48.001C61.4014 49.4731 62.594 50.6657 64.0661 50.6675H64.7216L72.9269 77.3336ZM45.4003 42.6679H34.7341V28.0016C34.7353 26.5294 35.9285 25.3368 37.4006 25.335H42.7337C44.2058 25.3368 45.3984 26.5294 45.4003 28.0016V42.6679ZM66.751 22.6892L73.3743 30.4984L74.3911 29.6354L73.3566 30.6681H70.7328C69.9961 30.6681 69.3992 31.265 69.3992 32.0017V48.001H64.0661V32.0017C64.0661 31.265 63.4692 30.6681 62.7331 30.6681H62.5934L60.1038 30.6706L60.091 30.4984L66.751 22.6892ZM17.9584 18.4266L39.3024 2.92599C39.7583 2.57932 40.3907 2.58237 40.8429 2.93454L62.1594 18.415C62.5226 18.6842 62.7356 19.1102 62.7331 19.5619V23.2605L58.0494 28.7822C57.3476 29.6165 57.198 30.7841 57.6668 31.7685C58.1038 32.7243 59.0583 33.3365 60.1093 33.3347H61.3996V42.6679H48.0668V28.0016C48.0638 25.0573 45.678 22.6715 42.7337 22.6685H37.4006C34.4564 22.6715 32.0706 25.0573 32.0669 28.0016V42.6679H18.7342V33.3347H20.0244C21.0754 33.3371 22.0306 32.7249 22.4676 31.7692C22.9369 30.7804 22.7843 29.608 22.077 28.773L17.4012 23.2611V19.5619C17.3969 19.1169 17.6038 18.6958 17.9584 18.4266V18.4266ZM13.4194 22.6892L20.0427 30.4984L21.0595 29.6354L20.0244 30.6681H17.4012C16.6645 30.6681 16.0676 31.265 16.0676 32.0017V48.001H10.7345V32.0017C10.7345 31.265 10.1376 30.6681 9.40094 30.6681H9.26179L6.77224 30.6706L6.75881 30.4984L13.4194 22.6892Z" fill="#3766CC"/>
<path d="M22.7355 22.6684C23.0291 22.6684 23.3141 22.5714 23.5467 22.3926L36.9862 12.0596C37.5703 11.6104 37.6796 10.7736 37.231 10.1895C36.7824 9.60544 35.945 9.49619 35.3615 9.94479L21.9213 20.2777C21.4685 20.6256 21.2878 21.2238 21.4715 21.7645C21.6559 22.3059 22.1643 22.669 22.7355 22.6684Z" fill="#3766CC"/>
<path d="M41.4003 8.0022C41.4003 8.73828 40.8033 9.33582 40.0673 9.33582C39.3306 9.33582 38.7336 8.73828 38.7336 8.0022C38.7336 7.26611 39.3306 6.66858 40.0673 6.66858C40.8033 6.66858 41.4003 7.26611 41.4003 8.0022Z" fill="#3766CC"/>
</g>
<defs>
<clipPath id="clip0_301_1544">
<rect width="80" height="80" fill="white"/>
</clipPath>
</defs>
</svg>
