<svg width="80" height="80" viewBox="0 0 80 80" fill="none" xmlns="http://www.w3.org/2000/svg">
<g clip-path="url(#clip0_301_1514)">
<path d="M78.8144 33.6635L70.5401 31.6022L67.5325 24.345L71.9251 17.0377C72.2948 16.4228 72.198 15.6352 71.6907 15.1279L64.8719 8.30902C64.3645 7.80168 63.5767 7.70496 62.962 8.07465L55.6548 12.4673L48.398 9.45995L46.3366 1.18581C46.1631 0.489566 45.5378 0.000976562 44.8205 0.000976562H35.1789C34.4614 0.000976562 33.8362 0.489566 33.6626 1.18581L31.6013 9.45995L24.344 12.4676L17.0367 8.07496C16.4217 7.70528 15.6341 7.80184 15.1269 8.30933L8.3082 15.128C7.80086 15.6354 7.7043 16.423 8.07383 17.0378L12.4664 24.3451L9.45897 31.6022L1.18483 33.6635C0.488589 33.8369 0 34.4622 0 35.1795V44.8212C0 45.5387 0.488589 46.1638 1.18483 46.3374L9.45913 48.3986L12.4668 55.6559L8.07414 62.9632C7.70446 63.578 7.80117 64.3657 8.30851 64.873L15.1274 71.6918C15.6345 72.1992 16.4223 72.2957 17.0372 71.9262L24.3445 67.5336L31.6017 70.5412L33.663 78.8155C33.8364 79.5118 34.4617 80.0003 35.1792 80.0003H44.8208C45.5383 80.0003 46.1635 79.5118 46.337 78.8155L48.3983 70.5412L55.6556 67.5336L62.9628 71.9262C63.5777 72.2957 64.3653 72.1992 64.8726 71.6918L71.6915 64.873C72.1988 64.3657 72.2954 63.578 71.9259 62.9632L67.5333 55.6559L70.5409 48.3986L78.8152 46.3374C79.5114 46.164 80 45.5387 80 44.8212V35.1795C79.9992 34.4622 79.5106 33.8369 78.8144 33.6635ZM76.8743 43.6002L69.0206 45.5568C68.54 45.6766 68.1445 46.0171 67.9548 46.4747L64.3441 55.1875C64.1544 55.6453 64.1931 56.1659 64.4483 56.5906L68.6178 63.5268L63.5258 68.6187L56.5896 64.4492C56.1649 64.1941 55.6441 64.1552 55.1865 64.345L46.4738 67.9558C46.0161 68.1455 45.6756 68.5409 45.5558 69.0215L43.5994 76.8751H36.3998L34.4433 69.0214C34.3234 68.5408 33.9829 68.1453 33.5253 67.9556L24.8126 64.3449C24.3546 64.1552 23.834 64.1939 23.4095 64.4491L16.4733 68.6186L11.3813 63.5268L15.5508 56.5906C15.8061 56.1659 15.8447 55.6453 15.655 55.1875L12.0443 46.4747C11.8546 46.0171 11.4591 45.6766 10.9785 45.5568L3.12497 43.6002V36.4006L10.9786 34.4441C11.4593 34.3242 11.8547 33.9838 12.0444 33.5261L15.6552 24.8134C15.8448 24.3556 15.8061 23.835 15.5509 23.4103L11.3813 16.4741L16.4733 11.3821L23.4095 15.5516C23.834 15.8068 24.3549 15.8457 24.8126 15.6558L33.5253 12.0451C33.9829 11.8554 34.3234 11.4599 34.4433 10.9793L36.3998 3.12579H43.5994L45.556 10.9795C45.6758 11.4601 46.0163 11.8555 46.4739 12.0452L55.1867 15.656C55.6445 15.8457 56.1652 15.8069 56.5898 15.5518L63.5259 11.3823L68.6179 16.4743L64.4484 23.4104C64.1931 23.8351 64.1545 24.3557 64.3442 24.8135L67.955 33.5263C68.1446 33.9839 68.5401 34.3244 69.0207 34.4442L76.8743 36.4006V43.6002Z" fill="#3766CC"/>
<path d="M50.3017 59.3671C49.952 58.578 49.0284 58.2222 48.24 58.5719C45.623 59.7322 42.8349 60.2949 40.0616 60.2947C34.757 60.2945 29.5094 58.2355 25.6366 54.3627C19.0781 47.8042 17.7876 37.6538 22.4984 29.6792C22.9373 28.9363 22.6907 27.9781 21.9477 27.5392C21.2052 27.1003 20.2467 27.3467 19.8078 28.0899C14.3714 37.2927 15.8597 49.0051 23.4268 56.5725C26.8408 59.9864 31.1495 62.2352 35.8871 63.0755C37.2631 63.3195 38.6452 63.4406 40.0221 63.4406C43.2772 63.4406 46.498 62.7628 49.5067 61.4288C50.2954 61.0789 50.6515 60.156 50.3017 59.3671Z" fill="#3766CC"/>
<path d="M25.6549 23.4143C25.0461 22.8025 24.0568 22.8001 23.4452 23.4089L23.4296 23.4245C22.8179 24.0332 22.8155 25.0226 23.4241 25.6341C23.7294 25.9412 24.1305 26.0946 24.5316 26.0946C24.9302 26.0946 25.3289 25.9431 25.6338 25.6396L25.6494 25.624C26.2611 25.0151 26.2635 24.0259 25.6549 23.4143Z" fill="#3766CC"/>
<path d="M56.5722 23.427C52.1454 19.0004 46.2598 16.5625 39.9996 16.5625C36.6971 16.5625 33.499 17.238 30.4939 18.5703C29.705 18.9201 29.3489 19.8431 29.6987 20.632C30.0486 21.4209 30.9715 21.777 31.7604 21.4271C34.3641 20.2728 37.1362 19.6875 39.9996 19.6875C45.4251 19.6875 50.526 21.8003 54.3625 25.6368C60.9211 32.1953 62.2115 42.3457 57.5008 50.3203C57.0619 51.0632 57.3085 52.0214 58.0514 52.4603C58.3008 52.6076 58.5744 52.6778 58.8447 52.6778C59.3791 52.6778 59.8998 52.4032 60.1914 51.9096C65.6278 42.7068 64.1395 30.9944 56.5722 23.427Z" fill="#3766CC"/>
<path d="M56.575 54.3654C55.9663 53.7536 54.9768 53.7513 54.3654 54.36L54.3498 54.3757C53.738 54.9844 53.7357 55.9738 54.3443 56.5853C54.6496 56.8922 55.0507 57.0456 55.4518 57.0456C55.8504 57.0456 56.2491 56.8941 56.5539 56.5907L56.5696 56.575C57.1813 55.9664 57.1836 54.9769 56.575 54.3654Z" fill="#3766CC"/>
<path d="M55.2298 31.4418C55.057 31.0034 54.6976 30.6709 54.2576 30.5284C53.0636 30.1092 46.8574 28.2718 41.8574 33.2718C41.0853 34.044 40.4765 34.8441 39.9996 35.6493C39.5228 34.844 38.914 34.0438 38.1419 33.2718C33.1614 28.2915 26.9848 30.0948 25.7418 30.5282C25.3017 30.6707 24.9423 31.0032 24.7693 31.4418C24.6564 31.7282 22.0653 38.5194 27.4798 43.9339C30.2168 46.6709 33.3046 47.362 35.7272 47.362C36.7864 47.362 37.7178 47.2296 38.4373 47.0784V52.9855C38.4373 53.8485 39.1368 54.548 39.9998 54.548C40.8628 54.548 41.5623 53.8485 41.5623 52.9855V47.0784C42.2817 47.2296 43.2129 47.362 44.2723 47.362C46.6946 47.362 49.783 46.6704 52.5197 43.9339C57.9338 38.5195 55.3428 31.7284 55.2298 31.4418ZM38.4347 42.0176L33.9158 37.4994C33.3055 36.8893 32.3161 36.8893 31.7061 37.4994C31.096 38.1097 31.096 39.0989 31.7061 39.7091L36.2244 44.2267C34.387 44.3145 31.8771 43.9118 29.6894 41.7242C26.5593 38.5942 27.082 34.8024 27.4688 33.2718C29.1099 32.8595 32.8444 32.394 35.932 35.4818C37.7836 37.3333 38.3565 39.4159 38.4359 41.1256C38.4269 41.4139 38.4281 41.694 38.4375 41.9644C38.4367 41.9823 38.4356 41.9998 38.4347 42.0176ZM50.3097 41.7242C48.1214 43.9126 45.6107 44.3148 43.7745 44.2268L48.293 39.7089C48.9032 39.0988 48.9033 38.1096 48.293 37.4992C47.683 36.8893 46.6936 36.8889 46.0833 37.4992L41.5648 42.0172C41.5639 41.9979 41.5626 41.9792 41.5618 41.9598C41.571 41.6917 41.5721 41.4141 41.5632 41.1283C41.642 39.4177 42.2148 37.3339 44.0671 35.4818C47.153 32.3957 50.885 32.859 52.5277 33.2712C52.9089 34.7996 53.4278 38.6061 50.3097 41.7242ZM54.0662 30.4796C54.1601 30.4973 54.2309 30.5193 54.2575 30.5284C54.1953 30.5082 54.1314 30.492 54.0662 30.4796Z" fill="#3766CC"/>
</g>
<defs>
<clipPath id="clip0_301_1514">
<rect width="80" height="80" fill="white"/>
</clipPath>
</defs>
</svg>
