<svg width="80" height="80" viewBox="0 0 80 80" fill="none" xmlns="http://www.w3.org/2000/svg">
<g clip-path="url(#clip0_301_1668)">
<path d="M79.9935 26.6667C79.9937 26.2256 79.7803 25.8022 79.3972 25.5516L40.7305 0.218238C40.2878 -0.0720951 39.7123 -0.0720951 39.2695 0.218238L0.602833 25.5516C0.219667 25.8022 0.00633333 26.2256 0.0065 26.6667H0V78.6667C0 79.4031 0.596333 80.0001 1.33333 80.0001H12C12.737 80.0001 13.3333 79.4031 13.3333 78.6667V36.0001H66.6667V78.6667C66.6667 79.4031 67.263 80.0001 68 80.0001H78.6667C79.4037 80.0001 80 79.4031 80 78.6667V26.6667H79.9935V26.6667ZM40 2.92724L74.1992 25.3336H5.80083L40 2.92724ZM77.3333 77.3334H69.3333V34.6667C69.3333 33.9304 68.737 33.3334 68 33.3334H12C11.263 33.3334 10.6667 33.9304 10.6667 34.6667V77.3334H2.66667V28.0001H77.3333V77.3334Z" fill="#3766CC"/>
<path d="M74.6667 37.3331H72V45.3331H74.6667V37.3331Z" fill="#3766CC"/>
<path d="M74.6667 47.35H72V50.02H74.6667V47.35Z" fill="#3766CC"/>
<path d="M74.6667 52H72V54.67H74.6667V52Z" fill="#3766CC"/>
<path d="M7.99992 37.3331H5.33325V45.3331H7.99992V37.3331Z" fill="#3766CC"/>
<path d="M7.99992 47.35H5.33325V50.02H7.99992V47.35Z" fill="#3766CC"/>
<path d="M7.99992 52H5.33325V54.67H7.99992V52Z" fill="#3766CC"/>
<path d="M61.3333 62.6665V59.9998H58.574C57.9145 54.7465 53.429 50.6665 48 50.6665H32C26.571 50.6665 22.0855 54.7465 21.426 59.9998H18.6666V62.6665H21.3333V64.2455C19.7846 64.7977 18.6666 66.2638 18.6666 67.9998V73.3332V75.9998C18.6666 78.2055 20.461 79.9998 22.6666 79.9998H25.3333C27.539 79.9998 29.3333 78.2055 29.3333 75.9998V74.6665H50.6666V75.9998C50.6666 78.2055 52.461 79.9998 54.6666 79.9998H57.3333C59.539 79.9998 61.3333 78.2055 61.3333 75.9998V73.3332V67.9998C61.3333 66.2638 60.2153 64.7977 58.6666 64.2455V62.6665H61.3333ZM24 61.3332C24 56.9217 27.5885 53.3332 32 53.3332H48C52.4115 53.3332 56 56.9217 56 61.3332V63.9998H24V61.3332ZM26.6666 75.9998C26.6666 76.7348 26.069 77.3332 25.3333 77.3332H22.6666C21.931 77.3332 21.3333 76.7348 21.3333 75.9998V74.6665H26.6666V75.9998ZM58.6666 75.9998C58.6666 76.7348 58.069 77.3332 57.3333 77.3332H54.6666C53.931 77.3332 53.3333 76.7348 53.3333 75.9998V74.6665H58.6666V75.9998ZM58.6666 70.6665V71.9998H52H28H21.3333V70.6665H25.3333V67.9998H21.3333C21.3333 67.2648 21.931 66.6665 22.6666 66.6665H57.3333C58.069 66.6665 58.6666 67.2648 58.6666 67.9998H54.6666V70.6665H58.6666Z" fill="#3766CC"/>
<path d="M64.0001 38.6665H16.0001C15.2631 38.6665 14.6667 39.2635 14.6667 39.9998V45.3332C14.6667 46.0695 15.2631 46.6665 16.0001 46.6665H64.0001C64.7371 46.6665 65.3334 46.0695 65.3334 45.3332V39.9998C65.3334 39.2635 64.7371 38.6665 64.0001 38.6665ZM62.6668 43.9998H17.3334V41.3332H62.6668V43.9998Z" fill="#3766CC"/>
</g>
<defs>
<clipPath id="clip0_301_1668">
<rect width="80" height="80" fill="white"/>
</clipPath>
</defs>
</svg>
