<svg width="80" height="80" viewBox="0 0 80 80" fill="none" xmlns="http://www.w3.org/2000/svg">
<path d="M14.2725 11.1355V23.6058C14.2725 24.4686 14.972 25.1683 15.835 25.1683H28.0437C28.9067 25.1683 29.6062 24.4686 29.6062 23.6058V11.1355C29.6062 10.2727 28.9067 9.573 28.0437 9.573H15.835C14.972 9.573 14.2725 10.2725 14.2725 11.1355ZM17.3975 12.698H26.4812V22.0433H17.3975V12.698Z" fill="#3766CC"/>
<path d="M36.5192 12.698H44.5928C45.4556 12.698 46.1553 11.9983 46.1553 11.1355C46.1553 10.2727 45.4556 9.573 44.5928 9.573H36.5192C35.6562 9.573 34.9567 10.2727 34.9567 11.1355C34.9567 11.9983 35.6562 12.698 36.5192 12.698Z" fill="#3766CC"/>
<path d="M14.2725 32.6968C14.2725 33.5596 14.972 34.2593 15.835 34.2593H52.6664C53.5292 34.2593 54.2289 33.5596 54.2289 32.6968C54.2289 31.834 53.5292 31.1343 52.6664 31.1343H15.835C14.972 31.1343 14.2725 31.8338 14.2725 32.6968Z" fill="#3766CC"/>
<path d="M36.5192 19.929H44.5928C45.4556 19.929 46.1553 19.2293 46.1553 18.3665C46.1553 17.5036 45.4556 16.804 44.5928 16.804H36.5192C35.6562 16.804 34.9567 17.5036 34.9567 18.3665C34.9567 19.2293 35.6562 19.929 36.5192 19.929Z" fill="#3766CC"/>
<path d="M75.8068 12.7719C75.8068 5.73 70.0781 0.00078125 63.0365 0C63.0362 0 63.036 0 63.0357 0H39.4821C38.6191 0 37.9196 0.699688 37.9196 1.5625C37.9196 2.42531 38.6191 3.125 39.4821 3.125H54.6732C51.8979 5.53328 50.2623 9.09656 50.2623 12.7719C50.2623 19.1261 55.1621 24.6756 61.4732 25.4487V72.5812H40.4935C40.2473 71.6858 40.1109 70.7822 40.7081 69.9767L44.2765 65.1636H46.0398C51.9646 65.1636 56.7849 60.3433 56.7849 54.4184V52.478C56.7849 46.5531 51.9646 41.733 46.0398 41.733H41.9904C40.4612 39.8345 38.5201 38.5181 35.9743 38.6295C34.1043 38.7122 32.4623 39.6823 31.4832 41.2555C30.3348 40.3027 28.8652 39.8019 27.3746 39.8427C25.7291 39.8887 24.2365 40.6081 23.1516 41.7331H22.9415C22.9412 41.7331 22.9409 41.7331 22.9405 41.7331C20.0707 41.7331 17.3726 42.8506 15.343 44.88C13.3134 46.9094 12.1955 49.608 12.1955 52.4781V54.4187C12.1955 59.812 16.1904 64.2888 21.3762 65.0486V72.5811H7.31836V3.125H25.7326C26.5955 3.125 27.2951 2.42531 27.2951 1.5625C27.2951 0.699688 26.5955 0 25.7326 0H5.75586C4.89289 0 4.19336 0.699688 4.19336 1.5625V74.1437C4.19336 75.0066 4.89289 75.7062 5.75586 75.7062H21.377V78.4375C21.377 79.3003 22.0765 80 22.9395 80C23.8024 80 24.502 79.3003 24.502 78.4375L24.5021 46.1097C24.5021 44.4848 25.8077 43.0131 27.4627 42.9673C29.1543 42.9231 30.598 44.3217 30.598 46.0158V54.7798C30.598 56.7753 32.2215 58.3986 34.2168 58.3986H34.2177H36.3324C39.1468 58.3586 41.0349 55.0445 39.2845 52.6858L34.1734 45.7806C33.6452 44.9988 33.5877 43.982 34.0074 43.1392C34.2057 42.7414 34.8076 41.8097 36.113 41.752C37.2793 41.7027 38.3902 42.2464 39.1156 43.1477L45.9804 51.6697C47.0871 53.0961 47.5074 55.5408 46.3752 57.0845L38.1971 68.1155C37.052 69.6617 36.9821 71.4763 37.4482 73.2841L38.8051 78.8103C39.0065 79.6306 39.8738 80.1564 40.6951 79.9552C41.533 79.7494 42.0457 78.9033 41.8399 78.065L41.2609 75.7062H63.0357C63.8985 75.7062 64.5982 75.0066 64.5982 74.1437V25.4447C70.9052 24.6709 75.8068 19.2848 75.8068 12.7719V12.7719ZM44.5076 44.8581H46.0398C50.2415 44.8581 53.6599 48.2764 53.6599 52.4781V54.4186C53.6599 58.4287 50.5462 61.7253 46.6093 62.0173L49.121 58.6297C50.9798 56.1217 50.2295 52.0036 48.4238 49.72L46.4841 47.312L44.5076 44.8581ZM15.3205 54.4187V52.4781C15.3205 50.4427 16.1132 48.5291 17.5526 47.0898C18.6398 46.0028 19.9974 45.2845 21.4738 44.9983C21.4095 45.3634 21.3762 45.7387 21.3762 46.1092V61.8772C17.9223 61.1538 15.3205 58.0844 15.3205 54.4187ZM34.2177 55.2734C33.9455 55.2734 33.724 55.0519 33.724 54.7797V50.4266L36.751 54.5169C36.9609 54.8431 36.7177 55.2734 36.3324 55.2734H34.2177ZM63.0352 22.4187C57.7865 22.4186 53.3879 18.017 53.3879 12.7719C53.3879 7.52625 57.7868 3.12516 63.0352 3.125C68.3545 3.12516 72.6818 7.45266 72.6818 12.7719C72.6818 18.0911 68.3545 22.4186 63.0352 22.4187Z" fill="#3766CC"/>
<path d="M66.101 8.89683L61.0725 13.9253L59.5819 12.4345C58.9717 11.8246 57.9827 11.8245 57.372 12.4345C56.7619 13.0446 56.7619 14.0339 57.372 14.6443L59.9675 17.24C60.2605 17.5329 60.658 17.6976 61.0724 17.6976C61.4867 17.6976 61.8841 17.5329 62.1772 17.24L68.3105 11.1067C68.9206 10.4965 68.9206 9.50714 68.3105 8.89683C67.7003 8.28683 66.7113 8.28683 66.101 8.89683V8.89683Z" fill="#3766CC"/>
<path d="M31.2766 2.15932C31.5877 2.9515 32.5394 3.32682 33.3156 3.00463C34.1024 2.67807 34.4863 1.75322 34.1609 0.965567C33.8361 0.178848 32.9063 -0.207558 32.1203 0.120254C31.3353 0.447754 30.9486 1.37275 31.2766 2.15932V2.15932Z" fill="#3766CC"/>
</svg>
