<svg width="80" height="80" viewBox="0 0 80 80" fill="none" xmlns="http://www.w3.org/2000/svg">
<g clip-path="url(#clip0_301_1629)">
<path d="M65.3333 77.3333V26.6666C65.3333 26.3457 65.2175 26.0355 65.0072 25.7931C64.7969 25.5506 64.5062 25.3922 64.1884 25.3468L45.5218 22.6801C45.3327 22.6531 45.14 22.6671 44.9568 22.721C44.7735 22.775 44.604 22.8676 44.4597 22.9928C44.3154 23.1179 44.1997 23.2726 44.1204 23.4464C44.041 23.6202 44 23.809 44 24V33.3333H46.6666V25.5373L62.6666 27.823V30.6666H53.3333V33.3333H62.6666V36H58.6666V38.6666H62.6666V41.3333H58.6666V44H62.6666V46.6666H58.6666V49.3333H62.6666V51.9999H58.6666V54.6666H62.6666V57.3333H58.6666V59.9999H62.6666V62.6666H58.6666V65.3333H62.6666V67.9999H58.6666V70.6666H62.6666V77.3333H54.6666V37.3333C54.6666 36.9797 54.5261 36.6405 54.2761 36.3905C54.026 36.1404 53.6869 36 53.3333 36H34.6666C34.313 36 33.9739 36.1404 33.7238 36.3905C33.4738 36.6405 33.3333 36.9797 33.3333 37.3333V61.3333H36V38.6666H52V77.3333H41.3333V65.3333C41.3333 64.9796 41.1928 64.6405 40.9428 64.3905C40.6927 64.1404 40.3536 63.9999 40 63.9999H29.3333C28.9797 63.9999 28.6405 64.1404 28.3905 64.3905C28.1405 64.6405 28 64.9796 28 65.3333V77.3333H17.3333V73.3333H24V70.6666H17.3333V67.9999H24V65.3333H17.3333V62.6666H24V59.9999H17.3333V57.3333H24V54.6666H17.3333V51.9999H30.6666V49.3333H23.041L23.7076 46.6666H30.6666V44H22.6666C22.3693 44 22.0805 44.0994 21.8461 44.2824C21.6117 44.4654 21.4453 44.7215 21.3731 45.01L20.2923 49.3333H16C15.6464 49.3333 15.3072 49.4738 15.0572 49.7238C14.8071 49.9739 14.6667 50.313 14.6667 50.6666V77.3333H0V79.9999H79.9999V77.3333H65.3333ZM30.6666 66.6666H38.6666V77.3333H30.6666V66.6666Z" fill="#3766CC"/>
<path d="M39.9999 33.3333V24C39.9999 23.6463 39.8594 23.3072 39.6094 23.0571C39.3593 22.8071 39.0202 22.6666 38.6666 22.6666H22.6666C22.313 22.6666 21.9738 22.8071 21.7238 23.0571C21.4737 23.3072 21.3333 23.6463 21.3333 24V41.3333H23.9999V25.3333H37.3332V33.3333H39.9999Z" fill="#3766CC"/>
<path d="M32 28H34.6667V30.6667H32V28Z" fill="#3766CC"/>
<path d="M26.6667 28H29.3334V30.6667H26.6667V28Z" fill="#3766CC"/>
<path d="M26.6667 33.3334H29.3334V36H26.6667V33.3334Z" fill="#3766CC"/>
<path d="M26.6667 38.6666H29.3334V41.3333H26.6667V38.6666Z" fill="#3766CC"/>
<path d="M38.6667 41.3334H42.6667V44H38.6667V41.3334Z" fill="#3766CC"/>
<path d="M45.3333 41.3334H49.3332V44H45.3333V41.3334Z" fill="#3766CC"/>
<path d="M38.6667 46.6666H42.6667V49.3333H38.6667V46.6666Z" fill="#3766CC"/>
<path d="M45.3333 46.6666H49.3332V49.3333H45.3333V46.6666Z" fill="#3766CC"/>
<path d="M38.6667 52H42.6667V54.6667H38.6667V52Z" fill="#3766CC"/>
<path d="M45.3333 52H49.3332V54.6667H45.3333V52Z" fill="#3766CC"/>
<path d="M38.6667 57.3333H42.6667V59.9999H38.6667V57.3333Z" fill="#3766CC"/>
<path d="M45.3333 57.3333H49.3332V59.9999H45.3333V57.3333Z" fill="#3766CC"/>
<path d="M45.3333 62.6666H49.3332V65.3333H45.3333V62.6666Z" fill="#3766CC"/>
<path d="M45.3333 68H49.3332V70.6667H45.3333V68Z" fill="#3766CC"/>
<path d="M1.33367 16.0008H5.33366V74.6674H8.00033V14.6674C8.00033 14.3138 7.85985 13.9747 7.6098 13.7246C7.35976 13.4746 7.02062 13.3341 6.667 13.3341H4.10783L12.0003 3.46845L19.8928 13.3341H17.3337C16.98 13.3341 16.6409 13.4746 16.3908 13.7246C16.1408 13.9747 16.0003 14.3138 16.0003 14.6674V46.6674H18.667V16.0008H22.667C22.9182 16.0008 23.1643 15.9299 23.377 15.7962C23.5897 15.6625 23.7603 15.4714 23.8691 15.2449C23.9779 15.0185 24.0205 14.7659 23.9921 14.5163C23.9636 14.2667 23.8652 14.0302 23.7081 13.8341L13.0415 0.500783C12.9166 0.344637 12.7581 0.218587 12.5779 0.131965C12.3977 0.0453424 12.2003 0.000366211 12.0003 0.000366211C11.8004 0.000366211 11.603 0.0453424 11.4227 0.131965C11.2425 0.218587 11.0841 0.344637 10.9592 0.500783L0.292501 13.8341C0.135483 14.0302 0.0370677 14.2667 0.00859286 14.5163C-0.019882 14.7659 0.0227426 15.0185 0.131556 15.2449C0.240369 15.4714 0.410942 15.6625 0.623624 15.7962C0.836305 15.9299 1.08244 16.0008 1.33367 16.0008V16.0008Z" fill="#3766CC"/>
<path d="M57.3332 16H61.3332V21.3334H63.9998V14.6667C63.9998 14.3131 63.8594 13.9739 63.6093 13.7239C63.3593 13.4738 63.0201 13.3334 62.6665 13.3334H60.1073L67.9998 3.46771L75.8923 13.3334H73.3332C72.9795 13.3334 72.6404 13.4738 72.3904 13.7239C72.1403 13.9739 71.9998 14.3131 71.9998 14.6667V74.6666H74.6665V16H78.6665C78.9177 16.0001 79.1639 15.9292 79.3765 15.7955C79.5892 15.6617 79.7598 15.4706 79.8686 15.2442C79.9774 15.0178 80.02 14.7652 79.9916 14.5156C79.9631 14.266 79.8647 14.0295 79.7077 13.8334L69.041 0.50005C68.9161 0.343905 68.7577 0.217855 68.5774 0.131232C68.3972 0.04461 68.1998 -0.000366211 67.9998 -0.000366211C67.7999 -0.000366211 67.6025 0.04461 67.4222 0.131232C67.242 0.217855 67.0836 0.343905 66.9587 0.50005L56.292 13.8334C56.135 14.0295 56.0366 14.266 56.0081 14.5156C55.9796 14.7652 56.0223 15.0178 56.1311 15.2442C56.2399 15.4706 56.4105 15.6617 56.6231 15.7955C56.8358 15.9292 57.0819 16.0001 57.3332 16V16Z" fill="#3766CC"/>
<path d="M29.3332 16H33.3332V20H35.9998V14.6667C35.9998 14.3131 35.8594 13.9739 35.6093 13.7239C35.3593 13.4738 35.0201 13.3334 34.6665 13.3334H32.1073L39.9998 3.46771L47.8923 13.3334H45.3332C44.9795 13.3334 44.6404 13.4738 44.3904 13.7239C44.1403 13.9739 43.9998 14.3131 43.9998 14.6667V20H46.6665V16H50.6665C50.9177 16.0001 51.1639 15.9292 51.3765 15.7955C51.5892 15.6617 51.7598 15.4706 51.8686 15.2442C51.9774 15.0178 52.02 14.7652 51.9916 14.5156C51.9631 14.266 51.8647 14.0295 51.7077 13.8334L41.041 0.50005C40.9161 0.343905 40.7577 0.217855 40.5774 0.131232C40.3972 0.04461 40.1998 -0.000366211 39.9998 -0.000366211C39.7999 -0.000366211 39.6025 0.04461 39.4222 0.131232C39.242 0.217855 39.0836 0.343905 38.9587 0.50005L28.292 13.8334C28.135 14.0295 28.0366 14.266 28.0081 14.5156C27.9796 14.7652 28.0223 15.0178 28.1311 15.2442C28.2399 15.4706 28.4105 15.6617 28.6231 15.7955C28.8358 15.9292 29.082 16.0001 29.3332 16V16Z" fill="#3766CC"/>
</g>
<defs>
<clipPath id="clip0_301_1629">
<rect width="80" height="80" fill="white"/>
</clipPath>
</defs>
</svg>
