<svg width="80" height="80" viewBox="0 0 80 80" fill="none" xmlns="http://www.w3.org/2000/svg">
<path d="M21.2505 50.3002C19.6188 50.3002 18.0238 50.784 16.667 51.6905C15.3103 52.5971 14.2529 53.8856 13.6285 55.393C13.0041 56.9005 12.8407 58.5593 13.159 60.1597C13.4773 61.76 14.2631 63.2301 15.4169 64.3838C16.5707 65.5376 18.0407 66.3234 19.641 66.6417C21.2414 66.96 22.9002 66.7966 24.4077 66.1722C25.9152 65.5478 27.2036 64.4904 28.1102 63.1337C29.0167 61.777 29.5005 60.1819 29.5005 58.5502C29.4981 56.3629 28.6281 54.2659 27.0815 52.7193C25.5348 51.1726 23.4378 50.3026 21.2505 50.3002ZM21.2505 64.0502C20.1627 64.0502 19.0993 63.7276 18.1949 63.1233C17.2904 62.5189 16.5854 61.66 16.1692 60.655C15.7529 59.65 15.644 58.5441 15.8562 57.4772C16.0684 56.4103 16.5922 55.4303 17.3614 54.6611C18.1306 53.8919 19.1106 53.3681 20.1775 53.1559C21.2444 52.9436 22.3503 53.0526 23.3553 53.4688C24.3603 53.8851 25.2193 54.5901 25.8236 55.4945C26.428 56.399 26.7505 57.4624 26.7505 58.5502C26.7489 60.0084 26.1689 61.4064 25.1378 62.4375C24.1067 63.4686 22.7087 64.0486 21.2505 64.0502V64.0502Z" fill="#3766CC"/>
<path d="M38.5822 69.7449C38.8658 69.7596 39.147 69.6861 39.387 69.5344C39.6271 69.3828 39.8143 69.1605 39.9228 68.898L41.7706 64.437C41.8793 64.1747 41.9041 63.8852 41.8416 63.6082C41.7792 63.3312 41.6325 63.0804 41.4217 62.8901L38.0444 59.8411V57.2595L41.4217 54.2104C41.6325 54.0202 41.7792 53.7693 41.8416 53.4923C41.9041 53.2154 41.8793 52.9259 41.7706 52.6635L39.9226 48.2034C39.8143 47.9408 39.6272 47.7183 39.3871 47.5667C39.1469 47.415 38.8656 47.3416 38.582 47.3565L34.0378 47.5886L32.2125 45.7627L32.4447 41.2185C32.4592 40.935 32.3856 40.6538 32.2339 40.4138C32.0823 40.1738 31.86 39.9866 31.5977 39.8779L27.1368 38.0302C26.8745 37.9216 26.585 37.8968 26.308 37.9592C26.031 38.0217 25.7802 38.1684 25.5899 38.3791L22.5409 41.7565H19.9593L16.9102 38.3791C16.72 38.1684 16.4691 38.0217 16.1922 37.9592C15.9152 37.8968 15.6257 37.9216 15.3634 38.0302L10.9032 39.8776C10.6409 39.9862 10.4186 40.1734 10.2669 40.4135C10.1153 40.6535 10.0417 40.9346 10.0562 41.2182L10.2877 45.7627L8.46255 47.5877L3.91833 47.3557C3.63466 47.3405 3.35329 47.4138 3.11311 47.5655C2.87294 47.7172 2.68585 47.9398 2.5777 48.2025L0.729696 52.6635C0.621026 52.9259 0.596225 53.2154 0.658697 53.4923C0.72117 53.7693 0.867853 54.0202 1.0786 54.2104L4.45596 57.2595V59.8411L1.0786 62.8901C0.867853 63.0804 0.72117 63.3312 0.658697 63.6082C0.596225 63.8852 0.621026 64.1747 0.729696 64.437L2.57753 68.898C2.68586 69.1606 2.873 69.3831 3.11313 69.5347C3.35325 69.6864 3.63453 69.7598 3.91816 69.7449L8.46238 69.5129L10.2877 71.3378L10.0555 75.882C10.041 76.1656 10.1146 76.4467 10.2663 76.6868C10.4179 76.9268 10.6402 77.114 10.9025 77.2227L15.3634 79.0703C15.6257 79.179 15.9152 79.2038 16.1922 79.1413C16.4691 79.0789 16.72 78.9322 16.9102 78.7214L19.9593 75.3441H22.5409L25.5899 78.7214C25.7802 78.9322 26.031 79.0789 26.308 79.1413C26.585 79.2038 26.8745 79.179 27.1368 79.0703L31.5977 77.2227C31.86 77.114 32.0823 76.9268 32.2339 76.6868C32.3856 76.4467 32.4592 76.1656 32.4447 75.882L32.2125 71.3378L34.038 69.5125L38.5822 69.7449ZM32.5251 67.1362L29.836 69.8253C29.6999 69.9614 29.5939 70.1244 29.5249 70.304C29.4558 70.4835 29.4252 70.6756 29.435 70.8677L29.6488 75.0531L26.9809 76.1581L24.172 73.048C24.043 72.9052 23.8856 72.791 23.7097 72.7129C23.5339 72.6347 23.3436 72.5944 23.1512 72.5944H19.3476C19.1554 72.5946 18.9654 72.635 18.7898 72.7132C18.6142 72.7913 18.457 72.9053 18.3282 73.048L15.5199 76.1589L12.8521 75.0539L13.0659 70.8686C13.0757 70.6765 13.0451 70.4844 12.976 70.3048C12.9069 70.1253 12.801 69.9622 12.6649 69.8262L9.97505 67.1362C9.83904 67.0001 9.676 66.8942 9.49647 66.8251C9.31694 66.756 9.12491 66.7254 8.9328 66.7352L4.74746 66.949L3.64247 64.2811L6.75239 61.4722C6.89518 61.3432 7.00933 61.1858 7.08747 61.01C7.1656 60.8342 7.20597 60.644 7.20597 60.4516V56.648C7.20582 56.4558 7.16538 56.2657 7.08726 56.0901C7.00913 55.9145 6.89505 55.7572 6.75239 55.6284L3.64144 52.82L4.74643 50.1521L8.93177 50.3659C9.12388 50.3757 9.31591 50.3451 9.49544 50.276C9.67497 50.2069 9.83801 50.101 9.97402 49.9649L12.6642 47.2752C12.8003 47.1392 12.9062 46.9761 12.9753 46.7966C13.0444 46.617 13.075 46.425 13.0652 46.2328L12.8514 42.0475L15.5192 40.9425L18.3282 44.0526C18.4571 44.1954 18.6146 44.3096 18.7905 44.3877C18.9663 44.4658 19.1566 44.5062 19.349 44.5062H23.1526C23.3448 44.506 23.5348 44.4655 23.7103 44.3874C23.8859 44.3093 24.0432 44.1952 24.172 44.0526L26.9802 40.9416L29.6481 42.0466L29.4343 46.232C29.4245 46.4241 29.4551 46.6162 29.5242 46.7957C29.5932 46.9753 29.6992 47.1384 29.8353 47.2744L32.5251 49.9641C32.6611 50.1001 32.8242 50.2061 33.0037 50.2751C33.1832 50.3442 33.3753 50.3748 33.5674 50.3651L37.7527 50.1512L38.8577 52.8191L35.7478 55.6284C35.605 55.7573 35.4908 55.9148 35.4127 56.0906C35.3346 56.2664 35.2942 56.4566 35.2942 56.649V60.4526C35.2944 60.6448 35.3348 60.8349 35.4129 61.0105C35.491 61.1861 35.6051 61.3434 35.7478 61.4722L38.8587 64.2806L37.7537 66.9485L33.5684 66.7347C33.3761 66.7248 33.1838 66.7554 33.0041 66.8246C32.8244 66.8938 32.6612 66.9999 32.5251 67.1362Z" fill="#3766CC"/>
<path d="M50.7925 39.7364L33.4384 32.7947L27.4248 5.13131C27.1527 3.90698 26.4726 2.81146 25.496 2.02446C24.5195 1.23747 23.3044 0.805722 22.0502 0.800049H6.12476C5.76009 0.800049 5.41035 0.944915 5.15249 1.20278C4.89462 1.46064 4.74976 1.81038 4.74976 2.17505V44.8002H7.49976V3.55006H22.0502C22.6773 3.55293 23.2848 3.76881 23.7731 4.1623C24.2614 4.55579 24.6014 5.10354 24.7375 5.71569L30.9063 34.0923C30.954 34.3121 31.0549 34.5167 31.2001 34.6884C31.3454 34.8601 31.5304 34.9935 31.7392 35.077L49.7712 42.2898C50.2825 42.4924 50.7209 42.8443 51.0293 43.2998C51.3377 43.7552 51.5017 44.293 51.4999 44.843V72.3003H34.9999V75.0503H52.8749C53.2396 75.0503 53.5893 74.9054 53.8472 74.6476C54.105 74.3897 54.2499 74.04 54.2499 73.6753V44.843C54.2535 43.7429 53.9256 42.6673 53.3088 41.7564C52.6921 40.8455 51.8152 40.1416 50.7925 39.7364V39.7364Z" fill="#3766CC"/>
<path d="M77.6247 39.3002C77.9893 39.3002 78.3391 39.1553 78.5969 38.8974C78.8548 38.6396 78.9997 38.2898 78.9997 37.9252V29.6751C78.9997 29.3105 78.8548 28.9607 78.5969 28.7029C78.3391 28.445 77.9893 28.3001 77.6247 28.3001H67.9996V22.8001H74.8747C75.2393 22.8001 75.5891 22.6552 75.8469 22.3974C76.1048 22.1395 76.2497 21.7898 76.2497 21.4251V13.1751C76.2497 12.8104 76.1048 12.4607 75.8469 12.2028C75.5891 11.9449 75.2393 11.8001 74.8747 11.8001H67.9996V4.92505C67.9996 4.56038 67.8548 4.21064 67.5969 3.95278C67.339 3.69492 66.9893 3.55005 66.6246 3.55005H29.4995V6.30006H34.9995V11.8001H32.2495V14.5501H43.2496V20.0501H33.6245V22.8001H50.1246V28.3001H34.9995V31.0501H41.8746V33.8001H44.6246V31.0501H58.3746V36.5502H52.8746V39.3002H67.9996V44.8002H56.9996V47.5502H59.7496V53.0502H56.9996V55.8002H67.9996V61.3002H56.9996V64.0502H59.7496V69.5503H56.9996V72.3003H77.6247C77.9893 72.3003 78.3391 72.1554 78.5969 71.8975C78.8548 71.6397 78.9997 71.2899 78.9997 70.9253V62.6752C78.9997 62.3106 78.8548 61.9608 78.5969 61.703C78.3391 61.4451 77.9893 61.3002 77.6247 61.3002H70.7496V55.8002H77.6247C77.9893 55.8002 78.3391 55.6554 78.5969 55.3975C78.8548 55.1396 78.9997 54.7899 78.9997 54.4252V46.1752C78.9997 45.8105 78.8548 45.4608 78.5969 45.2029C78.3391 44.945 77.9893 44.8002 77.6247 44.8002H70.7496V39.3002H77.6247ZM73.4996 14.5501V20.0501H62.4996V14.5501H73.4996ZM65.2496 11.8001H54.2496V6.30006H65.2496V11.8001ZM37.7495 6.30006H51.4996V11.8001H37.7495V6.30006ZM45.9996 14.5501H59.7496V20.0501H45.9996V14.5501ZM52.8746 22.8001H65.2496V28.3001H52.8746V22.8001ZM76.2497 64.0502V69.5503H62.4996V64.0502H76.2497ZM76.2497 47.5502V53.0502H62.4996V47.5502H76.2497ZM61.1246 36.5502V31.0501H76.2497V36.5502H61.1246Z" fill="#3766CC"/>
</svg>
