<svg width="80" height="80" viewBox="0 0 80 80" fill="none" xmlns="http://www.w3.org/2000/svg">
<g clip-path="url(#clip0_301_1578)">
<path d="M78.5563 13.2722C77.7589 13.2722 77.1125 13.9186 77.1125 14.7159V77.1123H65.5681V73.8612H72.4777C73.275 73.8612 73.9214 73.2148 73.9214 72.4175V46.8894C73.9214 46.092 73.275 45.4456 72.4777 45.4456H66.3083V42.2547H72.4777C73.275 42.2547 73.9214 41.6083 73.9214 40.8109V7.46218C73.9214 6.66484 73.275 6.01843 72.4777 6.01843H43.0392C42.2419 6.01843 41.5955 6.66484 41.5955 7.46218V28.3759H38.4044V7.46218C38.4044 6.66484 37.758 6.01843 36.9606 6.01843H7.52236C6.72502 6.01843 6.07861 6.66484 6.07861 7.46218V34.6253V40.8108C6.07861 41.6081 6.72502 42.2545 7.52236 42.2545H12.743C13.5403 42.2545 14.1867 41.6081 14.1867 40.8108C14.1867 40.0134 13.5403 39.367 12.743 39.367H8.96611V36.0691H15.0927C20.2003 36.0691 24.3556 31.9137 24.3556 26.8062V8.90593H35.5169V29.8197C35.5169 30.617 36.1633 31.2634 36.9606 31.2634H43.0392C43.8366 31.2634 44.483 30.617 44.483 29.8197V8.90593H71.0338V12.6203H67.2211C66.4238 12.6203 65.7774 13.2667 65.7774 14.0641V33.8917C65.7774 34.6891 66.4238 35.3355 67.2211 35.3355H71.0338V39.367H64.8644C64.0671 39.367 63.4206 40.0134 63.4206 40.8108V46.8892C63.4206 47.6866 64.0671 48.333 64.8644 48.333H71.0338V70.9736H64.1241C63.3267 70.9736 62.6803 71.62 62.6803 72.4173V78.5561C62.6803 79.3534 63.3267 79.9998 64.1241 79.9998H78.5558C79.3531 79.9998 79.9995 79.3534 79.9995 78.5561V14.7159C80 13.9186 79.3536 13.2722 78.5563 13.2722ZM21.4683 26.8062H21.4681C21.4681 30.3216 18.6081 33.1816 15.0927 33.1816H8.96611V8.90593H10.0196V9.83921C10.0196 10.6366 10.666 11.283 11.4633 11.283C12.2606 11.283 12.9071 10.6366 12.9071 9.83921V8.90593H13.7733V12.7267C13.7733 13.5241 14.4197 14.1705 15.2171 14.1705C16.0144 14.1705 16.6608 13.5241 16.6608 12.7267V8.90593H17.5271V9.83921C17.5271 10.6366 18.1735 11.283 18.9708 11.283C19.7681 11.283 20.4146 10.6366 20.4146 9.83921V8.90593H21.4681V26.8062H21.4683ZM71.0339 32.4481H68.665V15.5078H71.0339V32.4481Z" fill="#3766CC"/>
<path d="M13.7002 8H16.7002V15H13.7002V8Z" fill="#3766CC"/>
<path d="M10 8H13V12H10V8Z" fill="#3766CC"/>
<path d="M17.4 8H20.4V12H17.4V8Z" fill="#3766CC"/>
<path d="M78.5563 0.000976562H1.44375C0.646406 0.000976562 0 0.647383 0 1.44473V78.5571C0 79.3544 0.646406 80.0008 1.44375 80.0008H52.4952C53.2925 80.0008 53.9389 79.3544 53.9389 78.5571V72.4183C53.9389 71.621 53.2925 70.9746 52.4952 70.9746H44.483V56.9188C44.483 56.1214 43.8366 55.475 43.0392 55.475H36.9606C36.1633 55.475 35.5169 56.1214 35.5169 56.9188V70.9746H8.96609V67.6665H13.3563C14.713 67.6665 15.9119 66.9827 16.6302 65.9425C17.8858 66.5932 19.3286 66.9416 20.8442 66.9416C25.3477 66.9416 29.0116 63.7936 29.0116 59.9243C29.0116 58.7754 28.6828 57.636 28.0609 56.6293C27.642 55.9511 26.7522 55.7405 26.0739 56.1597C25.3955 56.5788 25.1853 57.4683 25.6044 58.1468C25.9492 58.705 26.1239 59.303 26.1239 59.9243C26.1239 62.2013 23.7553 64.054 20.8442 64.054C19.5452 64.054 18.2987 63.6736 17.3337 62.9979V56.8505C18.2987 56.1749 19.5452 55.7944 20.8442 55.7944C21.6848 55.7944 22.4886 55.9461 23.2331 56.245C23.9727 56.5422 24.8137 56.183 25.1108 55.443C25.4078 54.703 25.0488 53.8624 24.3088 53.5654C23.2205 53.1283 22.055 52.9068 20.8439 52.9068C19.3281 52.9068 17.885 53.2552 16.6289 53.9063C15.9106 52.8669 14.7122 52.1836 13.3558 52.1836H8.96609V48.3336H48.8142C49.6116 48.3336 50.258 47.6872 50.258 46.8899V40.8114C50.258 40.0141 49.6116 39.3677 48.8142 39.3677H17.363C16.5656 39.3677 15.9192 40.0141 15.9192 40.8114C15.9192 41.6088 16.5656 42.2552 17.363 42.2552H47.3706V45.4461H7.52234C6.725 45.4461 6.07859 46.0925 6.07859 46.8899V72.4182C6.07859 73.2155 6.725 73.8619 7.52234 73.8619H36.9608C37.7581 73.8619 38.4045 73.2155 38.4045 72.4182V58.3624H41.5956V72.4182C41.5956 73.2155 42.242 73.8619 43.0394 73.8619H51.0516V77.113H2.8875V2.88848H77.1125V9.58348C77.1125 10.3808 77.7589 11.0272 78.5563 11.0272C79.3536 11.0272 80 10.3808 80 9.58348V1.44473C80 0.647383 79.3536 0.000976562 78.5563 0.000976562ZM8.96609 55.0718H13.3563V55.0716C13.9575 55.0716 14.4464 55.5605 14.4464 56.1618V63.689C14.4464 64.2899 13.9575 64.7791 13.3563 64.7791H8.96609V55.0718Z" fill="#3766CC"/>
<path d="M60.3499 12.6204H49.6913C48.894 12.6204 48.2476 13.2668 48.2476 14.0641V33.8918C48.2476 34.6891 48.894 35.3355 49.6913 35.3355H60.3499C61.1472 35.3355 61.7937 34.6891 61.7937 33.8918V29.1755V18.7804V14.0641C61.7937 13.2668 61.1472 12.6204 60.3499 12.6204ZM58.9062 27.7318H56.1522V20.2241H58.9062V27.7318ZM58.9062 17.3366H54.7085C53.9112 17.3366 53.2647 17.983 53.2647 18.7804V29.1755C53.2647 29.9729 53.9112 30.6193 54.7085 30.6193H58.9062V32.448H51.1351V15.5079H58.9062V17.3366Z" fill="#3766CC"/>
<path d="M18.9999 58.48H21.6665V61.1466H18.9999V58.48Z" fill="#3766CC"/>
<path d="M13.9998 26H16.6664V28.6667H13.9998V26Z" fill="#3766CC"/>
</g>
<defs>
<clipPath id="clip0_301_1578">
<rect width="80" height="80" fill="white"/>
</clipPath>
</defs>
</svg>
