<svg width="80" height="80" viewBox="0 0 80 80" fill="none" xmlns="http://www.w3.org/2000/svg">
<path d="M78.828 18.75C78.181 18.75 77.6561 19.2749 77.6561 19.9219V69.9999H75.3124V11.7969C75.3124 11.1499 74.7875 10.625 74.1405 10.625H5.85936C5.21239 10.625 4.68749 11.1499 4.68749 11.7969V69.9999H2.34375V64.9218C2.34375 64.2748 1.81884 63.7499 1.17187 63.7499C0.524901 63.7499 0 64.2748 0 64.9218V71.1718C0 71.8193 0.524901 72.3436 1.17187 72.3436H4.68749V72.7343C4.68749 73.3818 5.21239 73.9061 5.85936 73.9061H17.7795C18.117 73.9061 18.4387 73.7609 18.6609 73.507C18.8836 73.2531 18.9856 72.9155 18.9416 72.5805L18.9105 72.3436H54.9999C55.6469 72.3436 56.1718 71.8187 56.1718 71.1718C56.1718 70.5242 55.6469 69.9999 54.9999 69.9999H18.6004L18.291 67.6561H61.7089L61.3994 69.9999H59.9999C59.3529 69.9999 58.828 70.5242 58.828 71.1718C58.828 71.8187 59.3529 72.3436 59.9999 72.3436H61.09L61.0582 72.5805C61.0143 72.9155 61.1168 73.2531 61.339 73.507C61.5618 73.7609 61.8828 73.9061 62.2203 73.9061H74.1405C74.7881 73.9061 75.3124 73.3818 75.3124 72.7343V72.3436H78.828C79.4756 72.3436 79.9998 71.8193 79.9998 71.1718V19.9219C79.9998 19.2749 79.4749 18.75 78.828 18.75ZM65.5467 44.5062C64.9004 44.5062 64.3749 43.9807 64.3749 43.3343C64.3749 42.6879 64.9004 42.1624 65.5467 42.1624H72.9686V44.5062H65.5467ZM62.2844 12.9687L67.4224 33.8818C67.5536 34.4165 68.0327 34.7741 68.5594 34.7741C68.6516 34.7741 68.7462 34.7631 68.8396 34.7399C69.4683 34.5855 69.8528 33.9508 69.6984 33.3227L64.6978 12.9687H68.0657L69.0666 24.5544C69.1197 25.1648 69.6312 25.625 70.233 25.625C70.2666 25.625 70.3008 25.6238 70.3349 25.6207C70.9801 25.5652 71.4574 24.9975 71.4018 24.3524L70.418 12.9687H72.9686V39.8187H66.6063L60.0103 12.9687H62.2844ZM9.58189 12.9687L8.59801 24.3524C8.54246 24.9969 9.01976 25.5652 9.6649 25.6207C9.69908 25.6238 9.73326 25.625 9.76683 25.625C10.3686 25.625 10.8801 25.1642 10.9332 24.5538L11.9342 12.9687H15.3021L10.3015 33.3227C10.1471 33.9508 10.5316 34.5855 11.1603 34.7399C11.2543 34.7631 11.3482 34.7741 11.4404 34.7741C11.9671 34.7741 12.4463 34.4165 12.5775 33.8818L17.7154 12.9687H19.9896L13.3935 39.8187H7.03124V12.9687H9.58189ZM14.4531 44.5062H7.03124V42.1624H14.4531C15.0995 42.1624 15.625 42.6879 15.625 43.3343C15.625 43.9807 15.0995 44.5062 14.4531 44.5062ZM7.03124 71.5624V46.8499H13.1787L16.4428 71.5624H7.03124ZM15.5212 46.6833C16.9391 46.2304 17.9687 44.9005 17.9687 43.3343C17.9687 41.8524 17.0465 40.5822 15.7464 40.0659L22.4035 12.9687H38.8281V65.3124H17.9815L15.5212 46.6833ZM41.1718 65.3124V12.9687H57.5963L64.2534 40.0659C62.9534 40.5822 62.0311 41.8524 62.0311 43.3343C62.0311 44.9005 63.0608 46.2304 64.4786 46.6833L62.0183 65.3124H41.1718ZM72.9686 71.5624H63.557L66.8212 46.8499H72.9686V71.5624Z" fill="#3766CC"/>
<path d="M78.828 5.9375H1.17187C0.524901 5.9375 0 6.4624 0 7.10937V59.9218C0 60.5693 0.524901 61.0936 1.17187 61.0936C1.81884 61.0936 2.34375 60.5693 2.34375 59.9218V8.28125H77.6561V14.9219C77.6561 15.5694 78.181 16.0937 78.828 16.0937C79.4749 16.0937 79.9998 15.5694 79.9998 14.9219V7.10937C79.9998 6.4624 79.4749 5.9375 78.828 5.9375Z" fill="#3766CC"/>
</svg>
