<svg width="190" height="190" viewBox="0 0 190 190" fill="none" xmlns="http://www.w3.org/2000/svg">
<g filter="url(#filter0_d_301_1800)">
<path d="M87.6017 44.1354C91.5692 39.7727 98.4308 39.7727 102.398 44.1354L104.462 46.4047C106.675 48.8383 109.943 50.0279 113.203 49.5862L116.243 49.1743C122.086 48.3825 127.343 52.7931 127.577 58.6854L127.7 61.7503C127.831 65.0371 129.57 68.0492 132.351 69.8061L134.944 71.4444C139.929 74.594 141.121 81.3514 137.513 86.0162L135.637 88.4426C133.624 91.0447 133.021 94.4699 134.022 97.6033L134.955 100.525C136.749 106.142 133.319 112.085 127.557 113.339L124.56 113.992C121.345 114.692 118.681 116.927 117.434 119.971L116.271 122.809C114.035 128.266 107.587 130.613 102.366 127.87L99.651 126.444C96.7391 124.914 93.2609 124.914 90.349 126.444L87.6336 127.87C82.4133 130.613 75.9654 128.266 73.7294 122.809L72.5663 119.971C71.319 116.927 68.6546 114.692 65.4405 113.992L62.4433 113.339C56.6814 112.085 53.2505 106.142 55.0451 100.525L55.9785 97.6033C56.9795 94.4699 56.3755 91.0447 54.3632 88.4426L52.4867 86.0162C48.8792 81.3514 50.0707 74.594 55.0561 71.4444L57.6493 69.8061C60.4302 68.0492 62.1693 65.0371 62.3003 61.7503L62.4225 58.6854C62.6575 52.7931 67.9138 48.3825 73.7574 49.1743L76.797 49.5862C80.0566 50.0279 83.3249 48.8383 85.538 46.4047L87.6017 44.1354Z" fill="#BD9C4C"/>
</g>
<path d="M87.6017 43.1354C91.5692 38.7727 98.4308 38.7727 102.398 43.1354L104.462 45.4047C106.675 47.8383 109.943 49.0279 113.203 48.5862L116.243 48.1743C122.086 47.3825 127.343 51.7931 127.577 57.6854L127.7 60.7503C127.831 64.0371 129.57 67.0492 132.351 68.8061L134.944 70.4444C139.929 73.594 141.121 80.3514 137.513 85.0162L135.637 87.4426C133.624 90.0447 133.021 93.4699 134.022 96.6033L134.955 99.5252C136.749 105.142 133.319 111.085 127.557 112.339L124.56 112.992C121.345 113.692 118.681 115.927 117.434 118.971L116.271 121.809C114.035 127.266 107.587 129.613 102.366 126.87L99.651 125.444C96.7391 123.914 93.2609 123.914 90.349 125.444L87.6336 126.87C82.4133 129.613 75.9654 127.266 73.7294 121.809L72.5663 118.971C71.319 115.927 68.6546 113.692 65.4405 112.992L62.4433 112.339C56.6814 111.085 53.2505 105.142 55.0451 99.5252L55.9785 96.6033C56.9795 93.4699 56.3755 90.0447 54.3632 87.4426L52.4867 85.0162C48.8792 80.3514 50.0707 73.594 55.0561 70.4444L57.6493 68.8061C60.4302 67.0492 62.1693 64.0371 62.3003 60.7503L62.4225 57.6854C62.6575 51.7931 67.9138 47.3825 73.7574 48.1743L76.797 48.5862C80.0566 49.0279 83.3249 47.8383 85.538 45.4047L87.6017 43.1354Z" fill="url(#paint0_linear_301_1800)"/>
<path d="M87.6017 43.1354C91.5692 38.7727 98.4308 38.7727 102.398 43.1354L104.462 45.4047C106.675 47.8383 109.943 49.0279 113.203 48.5862L116.243 48.1743C122.086 47.3825 127.343 51.7931 127.577 57.6854L127.7 60.7503C127.831 64.0371 129.57 67.0492 132.351 68.8061L134.944 70.4444C139.929 73.594 141.121 80.3514 137.513 85.0162L135.637 87.4426C133.624 90.0447 133.021 93.4699 134.022 96.6033L134.955 99.5252C136.749 105.142 133.319 111.085 127.557 112.339L124.56 112.992C121.345 113.692 118.681 115.927 117.434 118.971L116.271 121.809C114.035 127.266 107.587 129.613 102.366 126.87L99.651 125.444C96.7391 123.914 93.2609 123.914 90.349 125.444L87.6336 126.87C82.4133 129.613 75.9654 127.266 73.7294 121.809L72.5663 118.971C71.319 115.927 68.6546 113.692 65.4405 112.992L62.4433 112.339C56.6814 111.085 53.2505 105.142 55.0451 99.5252L55.9785 96.6033C56.9795 93.4699 56.3755 90.0447 54.3632 87.4426L52.4867 85.0162C48.8792 80.3514 50.0707 73.594 55.0561 70.4444L57.6493 68.8061C60.4302 67.0492 62.1693 64.0371 62.3003 60.7503L62.4225 57.6854C62.6575 51.7931 67.9138 47.3825 73.7574 48.1743L76.797 48.5862C80.0566 49.0279 83.3249 47.8383 85.538 45.4047L87.6017 43.1354Z" fill="url(#paint1_radial_301_1800)" fill-opacity="0.2"/>
<g clip-path="url(#clip0_301_1800)">
<path d="M87.2727 78.0455C87.2727 78.4726 87.6183 78.8182 88.0455 78.8182C88.4726 78.8182 88.8182 78.4726 88.8182 78.0455C88.8182 77.6191 89.1646 77.2727 89.591 77.2727C90.0174 77.2727 90.3637 77.6191 90.3637 78.0455C90.3637 78.4719 90.0174 78.8182 89.591 78.8182C89.1638 78.8182 88.8182 79.1638 88.8182 79.591C88.8182 80.0181 89.1638 80.3637 89.591 80.3637C90.0173 80.3637 90.3637 80.7101 90.3637 81.1365C90.3637 81.5628 90.0174 81.9092 89.591 81.9092C89.1646 81.9092 88.8182 81.5629 88.8182 81.1365C88.8182 80.7093 88.4726 80.3637 88.0455 80.3637C87.6183 80.3637 87.2727 80.7093 87.2727 81.1365C87.2727 82.4148 88.3126 83.4546 89.5909 83.4546C90.8692 83.4546 91.9091 82.4148 91.9091 81.1365C91.9091 80.5433 91.6849 80.0015 91.3174 79.591C91.6849 79.1805 91.9091 78.6387 91.9091 78.0456C91.9091 76.7673 90.8692 75.7274 89.5909 75.7274C88.3126 75.7274 87.2727 76.7672 87.2727 78.0455Z" fill="#6E5A45"/>
<path d="M100.409 83.4546C101.687 83.4546 102.727 82.4147 102.727 81.1364V78.0455C102.727 76.7671 101.687 75.7273 100.409 75.7273C99.1308 75.7273 98.0909 76.7671 98.0909 78.0455V81.1364C98.0909 82.4147 99.1308 83.4546 100.409 83.4546ZM99.6364 78.0455C99.6364 77.6191 99.9827 77.2727 100.409 77.2727C100.835 77.2727 101.182 77.6191 101.182 78.0455V81.1364C101.182 81.5627 100.836 81.9091 100.409 81.9091C99.9828 81.9091 99.6364 81.5628 99.6364 81.1364V78.0455Z" fill="#6E5A45"/>
<path d="M94.9999 83.4546C96.2783 83.4546 97.3181 82.4147 97.3181 81.1364C97.3181 79.8581 96.2783 78.8182 94.9999 78.8182C94.7626 78.8182 94.5378 78.8645 94.322 78.9312C94.4966 78.228 95.0084 77.2728 96.5454 77.2728C96.9725 77.2728 97.3181 76.9272 97.3181 76.5C97.3181 76.0729 96.9725 75.7273 96.5454 75.7273C93.4891 75.7273 92.6818 78.2545 92.6818 79.5909V81.1363C92.6818 82.4147 93.7216 83.4546 94.9999 83.4546ZM94.9999 80.3636C95.4263 80.3636 95.7727 80.71 95.7727 81.1364C95.7727 81.5627 95.4263 81.9091 94.9999 81.9091C94.5736 81.9091 94.2272 81.5628 94.2272 81.1364C94.2272 80.7101 94.5736 80.3636 94.9999 80.3636Z" fill="#6E5A45"/>
<path d="M104.273 77.2727C105.126 77.2727 105.818 76.5808 105.818 75.7273C105.818 74.8738 105.126 74.1819 104.273 74.1819C103.419 74.1819 102.727 74.8738 102.727 75.7273C102.727 76.5808 103.419 77.2727 104.273 77.2727Z" fill="#6E5A45"/>
<path d="M110.452 91.9504C110.452 91.6651 110.295 91.4033 110.044 91.269C109.793 91.1348 109.487 91.1498 109.251 91.3075L108.709 91.6688C107.373 89.6342 105.96 87.8319 105.169 86.8629C104.899 86.5317 104.412 86.4804 104.083 86.7527C103.751 87.0222 103.702 87.5089 103.972 87.8393C105.397 89.5856 106.531 91.1393 107.437 92.5167L106.933 92.8529C106.708 93.0031 106.578 93.2597 106.59 93.5297C106.602 93.7998 106.754 94.0436 106.991 94.1733L109.104 95.3289C110.536 98.0924 110.682 99.7133 110.199 100.196C109.652 100.743 107.64 100.554 103.778 98.2243C101.437 96.8128 98.831 94.8643 96.1675 92.5565C97.2613 91.5674 98.3579 90.526 99.4438 89.4399C103.207 85.6757 106.449 81.7852 108.719 78.3301L109.251 78.6848C109.38 78.7709 109.529 78.8147 109.68 78.8147C109.805 78.8147 109.93 78.7844 110.044 78.7234C110.295 78.5891 110.452 78.3272 110.452 78.042V75.4177C112.178 72.1335 112.465 69.8752 111.292 68.7025C108.992 66.4048 102.917 70.2728 99.4996 72.7833C99.1556 73.0353 99.0816 73.519 99.3344 73.8631C99.5849 74.2057 100.07 74.2796 100.414 74.0283C105.966 69.9513 109.381 68.9749 110.199 69.7951C110.668 70.2638 110.586 71.8133 109.097 74.667L106.992 75.8189C106.754 75.9487 106.602 76.1924 106.59 76.4626C106.578 76.7327 106.709 76.9893 106.933 77.1395L107.433 77.4727C105.222 80.842 102.048 84.6498 98.3514 88.3473C97.2397 89.459 96.1182 90.5194 95.001 91.5254C93.8835 90.5191 92.7615 89.4584 91.6493 88.3464C87.9533 84.6494 84.7785 80.842 82.5677 77.4732L83.0682 77.1394C83.293 76.9892 83.4236 76.7326 83.4115 76.4625C83.3994 76.1924 83.2477 75.9486 83.0101 75.8188L80.9024 74.6662C79.4137 71.813 79.3321 70.2636 79.8006 69.795C80.623 68.974 84.0371 69.952 89.5939 74.0341C89.9371 74.2861 90.4224 74.2121 90.6737 73.8688C90.9263 73.5254 90.8524 73.0419 90.5084 72.7891C87.0874 70.2749 81.0047 66.4024 78.708 68.7023C77.5346 69.8752 77.8225 72.1344 79.5492 75.42V78.0419C79.5492 78.3272 79.7061 78.589 79.9573 78.7233C80.0713 78.7844 80.1965 78.8146 80.3218 78.8146C80.4719 78.8146 80.6212 78.7708 80.7503 78.6848L81.2815 78.3304C83.5513 81.7852 86.7932 85.6752 90.5567 89.4389C91.6431 90.5255 92.74 91.567 93.8344 92.5565C91.1704 94.8646 88.5638 96.8138 86.2231 98.2254C82.3572 100.556 80.3459 100.741 79.8019 100.197C79.3191 99.7144 79.4649 98.093 80.8979 95.3286L83.0099 94.1741C83.2475 94.0443 83.3992 93.7998 83.4112 93.5297C83.4233 93.2596 83.2928 93.003 83.068 92.8529L82.5645 92.5172C83.4662 91.1464 84.5934 89.6013 86.0088 87.8651C86.2783 87.5346 86.2284 87.0479 85.898 86.7777C85.5674 86.5092 85.0816 86.5605 84.8108 86.8886C84.0246 87.8532 82.6213 89.645 81.2924 91.669L80.7503 91.3075C80.5141 91.1498 80.2078 91.1348 79.9572 91.269C79.7061 91.4033 79.5491 91.6652 79.5491 91.9504V94.6115C78.1364 97.3141 77.3691 99.9501 78.7094 101.29C79.1832 101.764 79.8328 102 80.6559 102C82.186 102 84.315 101.181 87.0213 99.5491C89.479 98.0661 92.215 96.0124 95.0008 93.5868C97.7863 96.0118 100.522 98.0651 102.979 99.5478C105.686 101.181 107.815 101.999 109.346 101.999C110.168 101.999 110.818 101.763 111.292 101.289C112.632 99.949 111.865 97.3139 110.452 94.6107V91.9504H110.452Z" fill="#6E5A45"/>
</g>
<defs>
<filter id="filter0_d_301_1800" x="0.395996" y="0.863358" width="189.208" height="188.158" filterUnits="userSpaceOnUse" color-interpolation-filters="sRGB">
<feFlood flood-opacity="0" result="BackgroundImageFix"/>
<feColorMatrix in="SourceAlpha" type="matrix" values="0 0 0 0 0 0 0 0 0 0 0 0 0 0 0 0 0 0 127 0" result="hardAlpha"/>
<feOffset dy="10"/>
<feGaussianBlur stdDeviation="25"/>
<feComposite in2="hardAlpha" operator="out"/>
<feColorMatrix type="matrix" values="0 0 0 0 0.913725 0 0 0 0 0.784314 0 0 0 0 0.470588 0 0 0 0.5 0"/>
<feBlend mode="normal" in2="BackgroundImageFix" result="effect1_dropShadow_301_1800"/>
<feBlend mode="normal" in="SourceGraphic" in2="effect1_dropShadow_301_1800" result="shape"/>
</filter>
<linearGradient id="paint0_linear_301_1800" x1="45" y1="35" x2="149.483" y2="39.9265" gradientUnits="userSpaceOnUse">
<stop stop-color="#E9C878"/>
<stop offset="1" stop-color="#C1A050"/>
</linearGradient>
<radialGradient id="paint1_radial_301_1800" cx="0" cy="0" r="1" gradientUnits="userSpaceOnUse" gradientTransform="translate(95 85) rotate(-108.041) scale(33.2118 97.5856)">
<stop stop-color="white"/>
<stop offset="1" stop-color="white" stop-opacity="0"/>
</radialGradient>
<clipPath id="clip0_301_1800">
<rect width="34" height="34" fill="white" transform="translate(78 68)"/>
</clipPath>
</defs>
</svg>
