<svg width="20" height="20" viewBox="0 0 20 20" fill="none" xmlns="http://www.w3.org/2000/svg">
<path fill-rule="evenodd" clip-rule="evenodd" d="M10.0009 0C7.28508 0 6.94424 0.011875 5.87756 0.0604167C4.81297 0.109167 4.08629 0.277708 3.45045 0.525C2.79274 0.780417 2.23481 1.12208 1.67898 1.67813C1.12272 2.23396 0.78105 2.79187 0.524797 3.44937C0.276878 4.08542 0.108126 4.81229 0.060209 5.87646C0.0125001 6.94313 0 7.28417 0 10C0 12.7158 0.0120835 13.0556 0.0604173 14.1223C0.109376 15.1869 0.27792 15.9135 0.525005 16.5494C0.780633 17.2071 1.1223 17.765 1.67835 18.3208C2.23398 18.8771 2.7919 19.2196 3.4492 19.475C4.08546 19.7223 4.81234 19.8908 5.87673 19.9396C6.94341 19.9881 7.28403 20 9.99969 20C12.7158 20 13.0556 19.9881 14.1222 19.9396C15.1868 19.8908 15.9143 19.7223 16.5506 19.475C17.2081 19.2196 17.7652 18.8771 18.3208 18.3208C18.8771 17.765 19.2187 17.2071 19.475 16.5496C19.7208 15.9135 19.8896 15.1867 19.9396 14.1225C19.9875 13.0558 20 12.7158 20 10C20 7.28417 19.9875 6.94333 19.9396 5.87667C19.8896 4.81208 19.7208 4.08542 19.475 3.44958C19.2187 2.79188 18.8771 2.23396 18.3208 1.67813C17.7646 1.12188 17.2083 0.780208 16.55 0.525C15.9125 0.277708 15.1854 0.109167 14.1208 0.0604167C13.0541 0.011875 12.7145 0 9.99781 0H10.0009ZM9.10404 1.80195C9.37029 1.80154 9.66738 1.80195 10.0011 1.80195C12.6712 1.80195 12.9876 1.81154 14.042 1.85945C15.017 1.90404 15.5462 2.06695 15.8987 2.20383C16.3654 2.38508 16.6981 2.60175 17.0479 2.95175C17.3979 3.30175 17.6145 3.63508 17.7962 4.10175C17.9331 4.45383 18.0962 4.983 18.1406 5.958C18.1885 7.01216 18.1989 7.32883 18.1989 9.99758C18.1989 12.6663 18.1885 12.983 18.1406 14.0372C18.096 15.0122 17.9331 15.5413 17.7962 15.8934C17.615 16.3601 17.3979 16.6924 17.0479 17.0422C16.6979 17.3922 16.3656 17.6088 15.8987 17.7901C15.5466 17.9276 15.017 18.0901 14.042 18.1347C12.9878 18.1826 12.6712 18.193 10.0011 18.193C7.3309 18.193 7.01444 18.1826 5.96026 18.1347C4.98525 18.0897 4.45608 17.9267 4.10336 17.7899C3.63669 17.6086 3.30336 17.392 2.95335 17.042C2.60335 16.692 2.38668 16.3595 2.20501 15.8926C2.06813 15.5405 1.90501 15.0113 1.86063 14.0363C1.81271 12.9822 1.80313 12.6655 1.80313 9.99508C1.80313 7.32466 1.81271 7.00966 1.86063 5.9555C1.90522 4.9805 2.06813 4.45133 2.20501 4.09883C2.38626 3.63216 2.60335 3.29883 2.95335 2.94883C3.30336 2.59883 3.63669 2.38216 4.10336 2.2005C4.45587 2.063 4.98525 1.9005 5.96026 1.8557C6.88277 1.81404 7.24027 1.80154 9.10404 1.79945V1.80195ZM15.339 3.46225C14.6765 3.46225 14.1389 3.99913 14.1389 4.66184C14.1389 5.32434 14.6765 5.86184 15.339 5.86184C16.0015 5.86184 16.539 5.32434 16.539 4.66184C16.539 3.99934 16.0015 3.46184 15.339 3.46184V3.46225ZM10.001 4.86441C7.16497 4.86441 4.86557 7.16379 4.86557 9.99983C4.86557 12.8359 7.16497 15.1342 10.001 15.1342C12.8371 15.1342 15.1357 12.8359 15.1357 9.99983C15.1357 7.16379 12.8369 4.86441 10.0008 4.86441H10.001ZM10.0012 6.66652C11.842 6.66652 13.3345 8.15881 13.3345 9.99985C13.3345 11.8407 11.842 13.3332 10.0012 13.3332C8.16009 13.3332 6.66779 11.8407 6.66779 9.99985C6.66779 8.15881 8.16009 6.66652 10.0012 6.66652Z" fill="white" fill-opacity="0.5"/>
</svg>
