<svg width="20" height="20" viewBox="0 0 20 20" fill="none" xmlns="http://www.w3.org/2000/svg">
<g clip-path="url(#clip0_301_566)">
<path d="M3.93415 10.7351C3.42331 11.7392 4.00331 12.2192 5.32665 13.0392C6.45165 13.7342 8.00581 13.9884 9.00415 14.0901C8.59498 14.4834 10.47 12.6801 5.06998 17.8742C3.92498 18.9717 5.76831 20.7326 6.91248 19.6584L10.01 16.6709C11.1958 17.8117 12.3325 18.9051 13.1075 19.6626C14.2525 20.7409 16.095 18.9951 14.9625 17.8784C14.8775 17.7976 10.765 13.8526 11.0158 14.0942C12.0266 13.9926 13.5575 13.7234 14.6691 13.0434L14.6683 13.0426C15.9916 12.2184 16.5716 11.7392 16.0683 10.7351C15.7641 10.1651 14.9441 9.68839 13.8525 10.5126C13.8525 10.5126 12.3783 11.6417 10.0008 11.6417C7.62248 11.6417 6.14915 10.5126 6.14915 10.5126C5.05831 9.68422 4.23498 10.1651 3.93415 10.7351Z" fill="white" fill-opacity="0.5"/>
<path d="M9.99923 10.1183C12.8976 10.1183 15.2642 7.85333 15.2642 5.065C15.2642 2.265 12.8976 0 9.99923 0C7.10006 0 4.7334 2.265 4.7334 5.065C4.7334 7.85333 7.10006 10.1183 9.99923 10.1183ZM9.99923 2.56583C11.4234 2.56583 12.5851 3.68333 12.5851 5.065C12.5851 6.435 11.4234 7.5525 9.99923 7.5525C8.57507 7.5525 7.4134 6.435 7.4134 5.065C7.41257 3.6825 8.57423 2.56583 9.99923 2.56583Z" fill="white" fill-opacity="0.5"/>
</g>
<defs>
<clipPath id="clip0_301_566">
<rect width="20" height="20" fill="white"/>
</clipPath>
</defs>
</svg>
